<svg id="Layer_1" data-name="Layer 1" xmlns="http://www.w3.org/2000/svg" viewBox="0 0 32 32"><defs><style>.cls-1{fill:#00034c;}.cls-2{fill:#eeefff;fill-rule:evenodd;}</style></defs><rect class="cls-1" width="32" height="32" rx="6.82"/><path class="cls-2" d="M15.37,4.48a1.19,1.19,0,0,1,1.26,0L24.9,9.65,16,14.88,7.1,9.65Z"/><path class="cls-2" d="M5.24,11.33l1.89,1.11H7.07V22.87l-1.28-.8a1.24,1.24,0,0,1-.41-.44,1.14,1.14,0,0,1-.15-.58V11.48A.76.76,0,0,1,5.24,11.33Z"/><polygon class="cls-2" points="14.8 16.95 14.8 27.7 9.44 24.35 9.44 13.8 14.8 16.95"/><polygon class="cls-2" points="17.2 16.95 22.54 13.81 22.54 24.36 17.2 27.7 17.2 16.95"/><path class="cls-2" d="M26.77,11.48v9.57a1.14,1.14,0,0,1-.15.58,1.24,1.24,0,0,1-.41.44l-1.3.81V12.44h0l1.89-1.11A.76.76,0,0,1,26.77,11.48Z"/></svg>